<svg width="37" height="35" viewBox="0 0 37 35" fill="none" xmlns="http://www.w3.org/2000/svg">
<path d="M18.5 13.9167C18.5 11.0657 17.3674 8.33137 15.3514 6.31535C13.3354 4.29933 10.6011 3.16675 7.75 3.16675H2.375V6.75008C2.375 9.60116 3.50759 12.3355 5.5236 14.3515C7.53962 16.3675 10.2739 17.5001 13.125 17.5001H18.5" stroke="#1B4F30" stroke-opacity="0.8" stroke-width="4.59935" stroke-linecap="round" stroke-linejoin="round"/>
<path d="M18.5 21.0835C18.5 18.2324 19.6326 15.4981 21.6486 13.4821C23.6646 11.4661 26.3989 10.3335 29.25 10.3335H34.625V12.1252C34.625 14.9762 33.4924 17.7105 31.4764 19.7266C29.4604 21.7426 26.7261 22.8752 23.875 22.8752H18.5" stroke="#1B4F30" stroke-opacity="0.8" stroke-width="4.59935" stroke-linecap="round" stroke-linejoin="round"/>
<path d="M18.5 31.8334V13.9167" stroke="#1B4F30" stroke-opacity="0.8" stroke-width="4.59935" stroke-linecap="round" stroke-linejoin="round"/>
</svg>
